# xmcd
#
# Track frame offsets: 
#        150
#        28845
#        53422
#        93669
#
# Disc length: 4440 seconds
#
# Revision: 2
# Processed by: cddbd v1.5.2PL0 Copyright (c) Steve Scherf et al.
# Submitted via: ExactAudioCopy v1.0b3
#
DISCID=2a115604
DTITLE=The Chemical Brothers - Believe
DYEAR=2005
DGENRE=Electronic
TTITLE0=Believe (Extended Version)
TTITLE1=Spring
TTITLE2=Believe (Erol Alkan's 'Feel Me' Re-Work)
TTITLE3=DATA
EXTD=
EXTT0=
EXTT1=
EXTT2=
EXTT3=
PLAYORDER=
